<svg width="278.567" height="278.567" xmlns="http://www.w3.org/2000/svg">

 <g>
  <title>background</title>
  <rect fill="none" id="canvas_background" height="402" width="582" y="-1" x="-1"/>
 </g>
 <g>
  <title>Layer 1</title>
  <g id="svg_1">
   <g id="svg_2">
    <path fill="#ffffff" id="svg_3" d="m271.245,212.376l-42.426,-42.426c-9.747,-9.748 -25.608,-9.747 -35.355,0l-5.604,5.604c-4.33,4.33 -10.086,6.715 -16.21,6.715c-6.124,0 -11.88,-2.385 -16.21,-6.715l-52.432,-52.433c-4.33,-4.33 -6.715,-10.086 -6.715,-16.21c0,-6.124 2.385,-11.88 6.715,-16.21l5.604,-5.604c9.748,-9.747 9.748,-25.608 0,-35.355l-42.428,-42.426c-9.747,-9.748 -25.608,-9.748 -35.355,0c-35.842,35.841 -41.047,92.195 -12.378,133.996c32.069,46.759 72.039,86.728 118.797,118.797c18.063,12.389 38.839,18.453 59.508,18.452c27.162,-0.001 54.135,-10.476 74.488,-30.829c4.722,-4.722 7.323,-11 7.323,-17.678s-2.6,-12.956 -7.322,-17.678zm-227.688,-192.334c1.322,-1.321 3.08,-2.049 4.95,-2.049s3.628,0.728 4.95,2.05l42.426,42.426c1.322,1.322 2.05,3.08 2.05,4.95s-0.728,3.627 -2.05,4.95l-2.525,2.525l-52.27,-52.27c0.805,-0.873 1.624,-1.736 2.469,-2.582zm103.872,225.223c-44.923,-30.811 -83.323,-69.211 -114.134,-114.134c-19.572,-28.537 -20.084,-65.246 -3.069,-93.912l52.046,52.046c-2.603,5.44 -3.981,11.437 -3.981,17.646c0,10.932 4.257,21.209 11.987,28.938l52.432,52.432c7.73,7.73 18.007,11.987 28.938,11.987c6.209,0 12.206,-1.377 17.646,-3.981l52.047,52.047c-28.665,17.015 -65.374,16.504 -93.912,-3.069zm111.088,-10.262c-0.846,0.846 -1.709,1.665 -2.581,2.469l-52.27,-52.27l2.525,-2.525c1.322,-1.322 3.08,-2.05 4.95,-2.05s3.628,0.728 4.95,2.05l42.426,42.426c2.729,2.729 2.729,7.171 0,9.9z"/>
   </g>
  </g>
  <g id="svg_4"/>
  <g id="svg_5"/>
  <g id="svg_6"/>
  <g id="svg_7"/>
  <g id="svg_8"/>
  <g id="svg_9"/>
  <g id="svg_10"/>
  <g id="svg_11"/>
  <g id="svg_12"/>
  <g id="svg_13"/>
  <g id="svg_14"/>
  <g id="svg_15"/>
  <g id="svg_16"/>
  <g id="svg_17"/>
  <g id="svg_18"/>
 </g>
</svg>